HIERARCHY
ROOT Hips
{
	OFFSET 0.000000 0.000000 0.000000 
	CHANNELS 6 Xposition Yposition Zposition Zrotation Yrotation Xrotation
	JOINT LeftUpLeg
	{
		OFFSET 1.363060 -1.794630 0.839290 
		CHANNELS 3 Zrotation Yrotation Xrotation
		JOINT LeftLeg
		{
			OFFSET 2.448110 -6.726130 0.000000 
			CHANNELS 3 Zrotation Yrotation Xrotation
			JOINT LeftFoot
			{
				OFFSET 2.562200 -7.039590 0.000000 
				CHANNELS 3 Zrotation Yrotation Xrotation
				JOINT LeftToeBase
				{
					OFFSET 0.157640 -0.433110 2.322550 
					CHANNELS 3 Zrotation Yrotation Xrotation
					End Site
					{
						OFFSET 0.000000 0.000000 0.000000 
					}
				}
			}
		}
	}
	JOINT RightUpLeg
	{
		OFFSET -1.305520 -1.794630 0.839290 
		CHANNELS 3 Zrotation Yrotation Xrotation
		JOINT RightLeg
		{
			OFFSET -2.542530 -6.985550 0.000000 
			CHANNELS 3 Zrotation Yrotation Xrotation
			JOINT RightFoot
			{
				OFFSET -2.568260 -7.056230 0.000000 
				CHANNELS 3 Zrotation Yrotation Xrotation
				JOINT RightToeBase
				{
					OFFSET -0.164730 -0.452590 2.363150 
					CHANNELS 3 Zrotation Yrotation Xrotation
					End Site
					{
						OFFSET 0.000000 0.000000 0.000000 
					}
				}
			}
		}
	}
	JOINT Spine
	{
		OFFSET 0.028270 2.035590 -0.193380 
		CHANNELS 3 Zrotation Yrotation Xrotation
		JOINT Spine1
		{
			OFFSET 0.056720 2.048850 -0.042750 
			CHANNELS 3 Zrotation Yrotation Xrotation
			JOINT Neck1
			{
				OFFSET -0.054170 1.746240 0.172020 
				CHANNELS 3 Zrotation Yrotation Xrotation
				JOINT Head
				{
					OFFSET 0.104070 1.761360 -0.123970 
					CHANNELS 3 Zrotation Yrotation Xrotation
					End Site
					{
						OFFSET 0.000000 0.000000 0.000000 
					}
				}
			}
			JOINT LeftArm
			{
				OFFSET 3.362410 1.200890 -0.311210 
				CHANNELS 3 Zrotation Yrotation Xrotation
				JOINT LeftForeArm
				{
					OFFSET 4.983000 -0.000000 -0.000000 
					CHANNELS 3 Zrotation Yrotation Xrotation
					JOINT LeftHand
					{
						OFFSET 3.483560 -0.000000 -0.000000 
						CHANNELS 3 Zrotation Yrotation Xrotation
						JOINT LeftHandIndex1
						{
							OFFSET 0.715260 -0.000000 -0.000000 
							CHANNELS 3 Zrotation Yrotation Xrotation
							End Site
							{
								OFFSET 0.000000 0.000000 0.000000 
							}
						}
					}
				}
			}
			JOINT RightArm
			{
				OFFSET -3.136600 1.374050 -0.404650 
				CHANNELS 3 Zrotation Yrotation Xrotation
				JOINT RightForeArm
				{
					OFFSET -5.241900 -0.000000 -0.000000 
					CHANNELS 3 Zrotation Yrotation Xrotation
					JOINT RightHand
					{
						OFFSET -3.444170 -0.000000 -0.000000 
						CHANNELS 3 Zrotation Yrotation Xrotation
						JOINT RightHandIndex1
						{
							OFFSET -0.622530 -0.000000 -0.000000 
							CHANNELS 3 Zrotation Yrotation Xrotation
							End Site
							{
								OFFSET 0.000000 0.000000 0.000000 
							}
						}
					}
				}
			}
		}
	}
}
MOTION
Frames: 7
Frame Time: 0.041667
-0.524359 17.624589 -48.365243 0.621101 -1.100299 19.991149 -13.952057 -5.431866 -45.108773 4.101346 15.179296 42.412491 -1.054376 6.852959 -2.806997 0.148700 -2.484600 -6.846800 20.782868 -1.882011 -23.866594 -1.597744 -10.895191 30.212007 -3.081508 14.679024 -15.747680 -0.002500 0.325000 -0.893000 1.115139 1.205360 -9.363841 -0.292254 0.919565 0.576472 -0.177331 -1.900853 11.691712 -1.901400 -0.839600 4.332100 -101.170521 12.795970 3.541664 5.159685 -15.873280 -0.567492 -1.084209 -0.270667 32.011949 -7.125000 0.000000 0.000000 96.929440 5.582463 28.264422 -20.433274 38.549411 -6.467195 -0.401693 -1.829954 -8.255728 7.125000 0.000000 0.000000 
-0.518241 17.624911 -48.137144 0.339495 -1.631048 20.008738 -13.538357 -5.177919 -45.200392 3.228574 14.319882 39.165107 -1.186513 7.508292 -2.615854 0.212000 -2.964100 -8.178900 21.041921 -2.672366 -23.044430 -1.473231 -10.607603 29.403403 -3.151150 15.201371 -15.811460 -0.018500 0.877500 -2.411700 1.104461 1.366587 -9.663919 -0.388189 1.034000 -0.387906 -0.103426 -1.807170 11.243063 -1.744500 -0.775600 3.476000 -100.690135 15.516701 5.446061 5.511078 -16.548032 -0.647316 -1.074411 -0.292017 29.967580 -7.125000 0.000000 0.000000 96.292933 4.576245 30.046061 -21.987085 40.066785 -7.210675 -0.319099 -1.842513 -9.989823 7.125000 0.000000 0.000000 
-0.511156 17.624267 -47.909153 0.190837 -2.178013 20.000699 -13.261564 -4.891857 -45.125937 2.383296 13.401083 35.878760 -1.263699 7.877407 -2.581734 0.168700 -2.645900 -7.294400 21.059875 -3.262521 -22.060022 -1.382211 -10.357420 28.715996 -3.217398 15.862402 -15.783187 -0.022300 0.964700 -2.651700 1.149206 1.380640 -9.410349 -0.169068 1.061742 0.377292 -0.053052 -1.519927 11.058026 -1.664200 -0.649400 3.491600 -101.344357 14.364913 3.160458 4.935879 -15.440171 -0.492746 -1.112206 -0.300364 32.099890 -7.125000 0.000000 0.000000 95.831899 5.946067 31.498259 -23.124887 41.235970 -7.828794 -0.240907 -1.835904 -11.361716 7.125000 0.000000 0.000000 
-0.504179 17.609454 -47.680732 0.057918 -2.787360 19.907838 -13.033266 -4.530659 -44.920864 1.583680 12.403944 32.531859 -1.359235 8.314291 -2.348711 0.120700 -2.240100 -6.169700 20.958968 -3.642449 -20.915092 -1.292461 -10.090304 28.001678 -3.263120 16.628827 -15.587332 -0.004700 0.442800 -1.216600 0.978590 2.034597 -9.593802 -0.329771 1.405945 -0.301512 -0.298657 -2.113255 10.420855 -1.848200 -0.903200 2.457000 -100.212015 17.596368 6.679403 5.554321 -16.698848 -0.621454 -1.120470 -0.335168 29.848837 -7.125000 0.000000 0.000000 95.525153 4.928056 31.468531 -24.368947 42.403263 -8.523986 -0.168637 -1.788455 -12.042795 7.125000 0.000000 0.000000 
-0.495914 17.589918 -47.451130 -0.075848 -3.328106 19.996291 -12.770520 -4.198172 -44.824810 0.840855 11.356311 29.151663 -1.451952 8.745222 -1.962876 0.110200 -2.140600 -5.894300 20.888588 -4.159755 -20.019805 -1.231173 -9.844842 27.349571 -3.311530 17.799320 -15.270208 -0.003700 -0.394300 1.083500 0.992301 2.148941 -9.434947 -0.163914 1.469409 0.172273 -0.259393 -1.870494 10.575799 -1.848100 -0.799000 2.858000 -100.319032 17.753664 7.442952 5.704272 -17.011561 -0.655719 -1.114572 -0.353491 28.879048 -7.125000 0.000000 0.000000 95.178672 6.595644 32.298136 -24.990818 43.010503 -8.906569 -0.118739 -1.746324 -12.525868 7.125000 0.000000 0.000000 
-0.484429 17.564585 -47.211546 -0.387495 -4.001975 20.023748 -12.175714 -3.894435 -44.495186 0.189248 10.287229 25.855376 -1.550497 9.178962 -1.808141 0.103100 -2.070800 -5.701400 20.959268 -4.774795 -19.089011 -1.172405 -9.615161 26.721833 -3.336133 18.902948 -14.982377 -0.005900 -0.494000 1.357500 0.989087 2.246612 -9.012708 -0.123496 1.507538 1.558417 -0.026433 -1.493588 10.542894 -1.702100 -0.628900 3.128600 -100.950527 15.961419 5.530544 5.191548 -16.072065 -0.546062 -1.109117 -0.353193 30.099668 -7.125000 0.000000 0.000000 94.929714 8.682697 33.297008 -25.684931 43.738394 -9.345752 -0.079802 -1.720778 -12.842215 7.125000 0.000000 0.000000 
-0.479491 17.541400 -46.977006 -0.441620 -4.893544 19.916299 -11.809542 -3.602073 -44.139748 -0.362501 9.234694 22.732984 -1.659489 9.667000 -1.449920 0.126200 -2.289800 -6.307100 20.650453 -5.086074 -17.992800 -1.098192 -9.338122 26.012283 -3.326065 19.793672 -14.523965 -0.007300 -0.550400 1.512300 0.926425 2.703578 -9.376844 -0.020970 1.780680 0.238703 0.034438 -1.606853 10.456596 -1.614000 -0.665800 2.667500 -99.761840 20.655960 11.352714 6.633854 -18.875189 -0.938025 -1.044062 -0.390020 24.563674 -7.125000 0.000000 0.000000 94.315806 7.541483 33.876281 -27.130159 44.898637 -10.159649 -0.028756 -1.671390 -13.307045 7.125000 0.000000 0.000000 
